HIERARCHY
ROOT Hips
{
	OFFSET 0.000000 83.214638 0.000000
	CHANNELS 6 Xposition Yposition Zposition Xrotation Yrotation Zrotation
	JOINT Pelvis
	{
		OFFSET 0.000000 0.000000 0.000000
		CHANNELS 3 Xrotation Yrotation Zrotation
		JOINT LeftUpLeg
		{
			OFFSET 8.479700 -4.795502 -0.379100
			CHANNELS 3 Xrotation Yrotation Zrotation
			JOINT LeftLeg
			{
				OFFSET 0.024144 -32.555107 0.112900
				CHANNELS 3 Xrotation Yrotation Zrotation
				JOINT LeftFoot
				{
					OFFSET -0.024144 -32.638630 -3.012600
					CHANNELS 3 Xrotation Yrotation Zrotation
					JOINT LeftToeBase
					{
						OFFSET 0.970200 -13.225400 11.864200
						CHANNELS 3 Xrotation Yrotation Zrotation
						End Site
						{
							OFFSET 0.000000 12.319262 0.000000
						}
					}
					JOINT LFootTongue
					{
						OFFSET 1.142400 -1.059800 6.665200
						CHANNELS 3 Xrotation Yrotation Zrotation
						End Site
						{
							OFFSET 0.000000 12.319262 0.000000
						}
					}
				}
				JOINT LeftPantLeg
				{
					OFFSET 0.918482 -16.533964 -2.284700
					CHANNELS 3 Xrotation Yrotation Zrotation
					End Site
					{
						OFFSET 0.350399 24.744368 0.000000
					}
				}
			}
		}
		JOINT RightUpLeg
		{
			OFFSET -8.479700 -4.795502 -0.379100
			CHANNELS 3 Xrotation Yrotation Zrotation
			JOINT RightLeg
			{
				OFFSET -0.023144 -32.555092 0.112900
				CHANNELS 3 Xrotation Yrotation Zrotation
				JOINT RightFoot
				{
					OFFSET 0.023144 -32.638641 -3.012700
					CHANNELS 3 Xrotation Yrotation Zrotation
					JOINT RightToeBase
					{
						OFFSET -0.970200 -13.225400 11.864200
						CHANNELS 3 Xrotation Yrotation Zrotation
						End Site
						{
							OFFSET 0.000000 12.319244 0.000000
						}
					}
					JOINT RFootTongue
					{
						OFFSET -1.142200 -1.059800 6.665200
						CHANNELS 3 Xrotation Yrotation Zrotation
						End Site
						{
							OFFSET 0.000000 12.319243 0.000000
						}
					}
				}
				JOINT RightPantLeg
				{
					OFFSET -0.919482 -16.533978 -2.284800
					CHANNELS 3 Xrotation Yrotation Zrotation
					End Site
					{
						OFFSET -0.350400 24.744419 0.000000
					}
				}
			}
		}
	}
	JOINT Spine
	{
		OFFSET 0.000000 7.722000 1.166200
		CHANNELS 3 Xrotation Yrotation Zrotation
		JOINT Spine1
		{
			OFFSET 0.000000 12.024101 0.248800
			CHANNELS 3 Xrotation Yrotation Zrotation
			JOINT Spine2
			{
				OFFSET 0.000000 11.502998 -0.491200
				CHANNELS 3 Xrotation Yrotation Zrotation
				JOINT Neck
				{
					OFFSET 0.000000 18.430702 -3.123100
					CHANNELS 3 Xrotation Yrotation Zrotation
					JOINT Head
					{
						OFFSET 0.000000 9.051102 1.034000
						CHANNELS 3 Xrotation Yrotation Zrotation
						JOINT HairB
						{
							OFFSET 0.208400 24.786102 24.822300
							CHANNELS 3 Xrotation Yrotation Zrotation
							End Site
							{
								OFFSET 0.000000 32.263779 0.000000
							}
						}
						JOINT HairA
						{
							OFFSET -7.081100 24.428299 23.196600
							CHANNELS 3 Xrotation Yrotation Zrotation
							End Site
							{
								OFFSET 0.000000 32.263779 0.000000
							}
						}
						JOINT Hat
						{
							OFFSET 16.728800 15.048294 -15.439601
							CHANNELS 3 Xrotation Yrotation Zrotation
							End Site
							{
								OFFSET 0.000000 32.263779 0.000000
							}
						}
					}
				}
				JOINT LeftShoulder
				{
					OFFSET 6.197800 13.665199 -4.064700
					CHANNELS 3 Xrotation Yrotation Zrotation
					JOINT LeftArm
					{
						OFFSET 7.778100 -0.187103 -1.709300
						CHANNELS 3 Xrotation Yrotation Zrotation
						JOINT LeftForeArm
						{
							OFFSET 22.049376 0.000000 0.000000
							CHANNELS 3 Xrotation Yrotation Zrotation
							JOINT LeftHand
							{
								OFFSET 23.009392 0.000000 0.000000
								CHANNELS 3 Xrotation Yrotation Zrotation
								JOINT LeftHandThumb1
								{
									OFFSET 3.507191 -2.063065 3.133727
									CHANNELS 3 Xrotation Yrotation Zrotation
									JOINT LeftHandThumb2
									{
										OFFSET 3.101337 -1.790558 1.790558
										CHANNELS 3 Xrotation Yrotation Zrotation
										JOINT LeftHandThumb3
										{
											OFFSET 3.058640 -1.765907 1.765906
											CHANNELS 3 Xrotation Yrotation Zrotation
											End Site
											{
												OFFSET -0.415260 3.926476 -0.049563
											}
										}
									}
								}
								JOINT LeftHandIndex1
								{
									OFFSET 11.334419 -0.901459 3.706815
									CHANNELS 3 Xrotation Yrotation Zrotation
									JOINT LeftHandIndex2
									{
										OFFSET 3.283112 0.000000 0.000000
										CHANNELS 3 Xrotation Yrotation Zrotation
										JOINT LeftHandIndex3
										{
											OFFSET 3.323853 0.000000 0.000000
											CHANNELS 3 Xrotation Yrotation Zrotation
											End Site
											{
												OFFSET -1.135597 3.097809 0.402452
											}
										}
									}
								}
								JOINT LeftHandMiddle1
								{
									OFFSET 11.335861 0.000000 0.000000
									CHANNELS 3 Xrotation Yrotation Zrotation
									JOINT LeftHandMiddle2
									{
										OFFSET 3.410492 0.000000 0.000000
										CHANNELS 3 Xrotation Yrotation Zrotation
										JOINT LeftHandMiddle3
										{
											OFFSET 3.312172 0.000000 0.000000
											CHANNELS 3 Xrotation Yrotation Zrotation
											End Site
											{
												OFFSET -1.150200 3.080154 0.400270
											}
										}
									}
								}
								JOINT LeftHandRing1
								{
									OFFSET 11.514786 -0.013176 -3.003090
									CHANNELS 3 Xrotation Yrotation Zrotation
									JOINT LeftHandRing2
									{
										OFFSET 3.053307 0.000000 0.000000
										CHANNELS 3 Xrotation Yrotation Zrotation
										JOINT LeftHandRing3
										{
											OFFSET 3.295807 0.000000 0.000000
											CHANNELS 3 Xrotation Yrotation Zrotation
											End Site
											{
												OFFSET -1.281006 3.013344 0.375733
											}
										}
									}
								}
								JOINT LeftHandPinky1
								{
									OFFSET 10.518692 -0.960396 -5.730441
									CHANNELS 3 Xrotation Yrotation Zrotation
									JOINT LeftHandPinky2
									{
										OFFSET 2.861649 0.000000 0.000000
										CHANNELS 3 Xrotation Yrotation Zrotation
										JOINT LeftHandPinky3
										{
											OFFSET 2.863380 0.000000 0.000000
											CHANNELS 3 Xrotation Yrotation Zrotation
											End Site
											{
												OFFSET -0.843597 2.711159 0.369971
											}
										}
									}
								}
							}
							JOINT LSleeve
							{
								OFFSET 6.676277 -0.344902 -1.011730
								CHANNELS 3 Xrotation Yrotation Zrotation
								End Site
								{
									OFFSET 0.000000 14.885353 0.000000
								}
							}
						}
					}
				}
				JOINT RightShoulder
				{
					OFFSET -6.197800 13.665199 -4.064700
					CHANNELS 3 Xrotation Yrotation Zrotation
					JOINT RightArm
					{
						OFFSET -7.778100 -0.187103 -1.709300
						CHANNELS 3 Xrotation Yrotation Zrotation
						JOINT RightForeArm
						{
							OFFSET -22.049376 0.000000 0.000000
							CHANNELS 3 Xrotation Yrotation Zrotation
							JOINT RightHand
							{
								OFFSET -23.009392 0.000000 0.000000
								CHANNELS 3 Xrotation Yrotation Zrotation
								JOINT RightHandThumb1
								{
									OFFSET -3.507191 -2.063065 3.133727
									CHANNELS 3 Xrotation Yrotation Zrotation
									JOINT RightHandThumb2
									{
										OFFSET -3.101337 -1.790558 1.790558
										CHANNELS 3 Xrotation Yrotation Zrotation
										JOINT RightHandThumb3
										{
											OFFSET -3.058640 -1.765907 1.765906
											CHANNELS 3 Xrotation Yrotation Zrotation
											End Site
											{
												OFFSET 0.415260 3.926476 -0.049563
											}
										}
									}
								}
								JOINT RightHandIndex1
								{
									OFFSET -11.334419 -0.901459 3.706815
									CHANNELS 3 Xrotation Yrotation Zrotation
									JOINT RightHandIndex2
									{
										OFFSET -3.283112 0.000000 0.000000
										CHANNELS 3 Xrotation Yrotation Zrotation
										JOINT RightHandIndex3
										{
											OFFSET -3.323853 0.000000 0.000000
											CHANNELS 3 Xrotation Yrotation Zrotation
											End Site
											{
												OFFSET 1.135597 3.097809 0.402452
											}
										}
									}
								}
								JOINT RightHandMiddle1
								{
									OFFSET -11.335861 0.000000 0.000000
									CHANNELS 3 Xrotation Yrotation Zrotation
									JOINT RightHandMiddle2
									{
										OFFSET -3.410492 0.000000 0.000000
										CHANNELS 3 Xrotation Yrotation Zrotation
										JOINT RightHandMiddle3
										{
											OFFSET -3.312172 0.000000 0.000000
											CHANNELS 3 Xrotation Yrotation Zrotation
											End Site
											{
												OFFSET 1.150200 3.080154 0.400270
											}
										}
									}
								}
								JOINT RightHandRing1
								{
									OFFSET -11.514786 -0.013176 -3.003090
									CHANNELS 3 Xrotation Yrotation Zrotation
									JOINT RightHandRing2
									{
										OFFSET -3.053307 0.000000 0.000000
										CHANNELS 3 Xrotation Yrotation Zrotation
										JOINT RightHandRing3
										{
											OFFSET -3.295807 0.000000 0.000000
											CHANNELS 3 Xrotation Yrotation Zrotation
											End Site
											{
												OFFSET 1.281006 3.013344 0.375733
											}
										}
									}
								}
								JOINT RightHandPinky1
								{
									OFFSET -10.518692 -0.960396 -5.730441
									CHANNELS 3 Xrotation Yrotation Zrotation
									JOINT RightHandPinky2
									{
										OFFSET -2.861649 0.000000 0.000000
										CHANNELS 3 Xrotation Yrotation Zrotation
										JOINT RightHandPinky3
										{
											OFFSET -2.863380 0.000000 0.000000
											CHANNELS 3 Xrotation Yrotation Zrotation
											End Site
											{
												OFFSET 0.843597 2.711159 0.369971
											}
										}
									}
								}
							}
							JOINT RSleeve
							{
								OFFSET -6.676277 -0.344902 -1.011730
								CHANNELS 3 Xrotation Yrotation Zrotation
								End Site
								{
									OFFSET 0.000000 14.885353 0.000000
								}
							}
						}
					}
				}
				JOINT Backpack
				{
					OFFSET 0.000000 -2.471497 36.677502
					CHANNELS 3 Xrotation Yrotation Zrotation
					End Site
					{
						OFFSET 0.000000 20.427315 0.000000
					}
				}
				JOINT Hood
				{
					OFFSET 0.000000 18.754097 -10.431000
					CHANNELS 3 Xrotation Yrotation Zrotation
					JOINT Hood1
					{
						OFFSET 0.000000 -5.011002 -7.685901
						CHANNELS 3 Xrotation Yrotation Zrotation
						End Site
						{
							OFFSET 0.000000 9.175140 0.000000
						}
					}
				}
				JOINT LHoodieString
				{
					OFFSET 5.250500 16.397697 3.089900
					CHANNELS 3 Xrotation Yrotation Zrotation
					JOINT LHoodieString1
					{
						OFFSET 0.257700 -6.364304 3.694600
						CHANNELS 3 Xrotation Yrotation Zrotation
						JOINT LHoodieString2
						{
							OFFSET 0.000000 -9.643799 2.679100
							CHANNELS 3 Xrotation Yrotation Zrotation
							End Site
							{
								OFFSET 0.000000 10.009018 0.000000
							}
						}
					}
				}
				JOINT RHoodieString
				{
					OFFSET -5.250500 16.397697 3.089900
					CHANNELS 3 Xrotation Yrotation Zrotation
					JOINT RHoodieString1
					{
						OFFSET -0.257700 -6.364304 3.694600
						CHANNELS 3 Xrotation Yrotation Zrotation
						JOINT RHoodieString2
						{
							OFFSET 0.000000 -9.643799 2.679100
							CHANNELS 3 Xrotation Yrotation Zrotation
							End Site
							{
								OFFSET 0.000000 10.009018 0.000000
							}
						}
					}
				}
			}
			JOINT LBackpack_Strap
			{
				OFFSET 15.223200 -7.719803 -6.610900
				CHANNELS 3 Xrotation Yrotation Zrotation
				End Site
				{
					OFFSET 0.000000 16.040596 0.000000
				}
			}
			JOINT RBackpack_Strap
			{
				OFFSET -15.223000 -7.719803 -6.610900
				CHANNELS 3 Xrotation Yrotation Zrotation
				End Site
				{
					OFFSET 0.000000 16.040596 0.000000
				}
			}
		}
	}
	JOINT BoyFacialAnim_Joint
	{
		OFFSET 1.000000 -82.208099 -1.550900
		CHANNELS 3 Xrotation Yrotation Zrotation
		End Site
		{
			OFFSET 0.000000 30.012791 0.000000
		}
	}
}
MOTION
Frames: 4
Frame Time: 0.033333
16.215202 38.064819 -142.589203 -40.877388 -33.186366 -20.208580 -0.000000 -0.000001 0.000001 -72.153934 -4.428071 23.896470 121.169195 -9.625895 -0.553850 -13.796384 -5.467397 -1.020024 -0.000000 0.000002 0.000000 -0.000000 0.000002 0.000000 -0.000000 -0.000003 0.000001 -45.940607 15.240140 -14.366512 145.370878 -8.781322 -2.528948 -19.528986 -9.181551 34.332970 0.000002 -0.000000 0.000000 0.000002 -0.000000 0.000000 -0.000001 -0.000002 -0.000002 58.821801 2.470862 1.330054 10.734630 0.744708 -4.521336 17.520062 -0.085164 -4.562558 -10.626382 7.119773 2.460943 -15.542314 20.386158 10.545791 0.000001 0.000000 -0.000002 0.000001 0.000000 -0.000002 0.000001 0.000000 -0.000002 -37.559057 -4.830592 1.310664 -70.567411 -18.461781 -68.280684 0.000014 -54.899100 0.000010 -122.313484 1.722316 24.604787 4.709220 9.560371 3.111991 19.473178 -1.474918 7.636922 0.000000 0.000002 0.000002 -1.775802 -2.774383 -17.382847 3.159898 5.197356 -62.575625 -0.000001 0.000001 -0.000002 -0.316529 3.893456 -38.067247 3.306349 5.270461 -64.180972 -0.000000 -0.000001 -0.000002 -0.171094 5.416969 -57.419338 4.004538 5.553024 -71.573907 -0.000000 -0.000001 -0.000001 -6.290034 3.278197 -65.831201 3.449694 5.337172 -65.731821 0.000004 0.000000 -0.000000 -0.000000 -0.000001 0.000001 -42.139839 -9.769744 -7.575437 -51.815611 45.272130 94.913818 0.000073 103.657485 -0.000081 -37.420069 -24.461441 -24.583553 8.964115 -9.308867 9.896520 15.236209 -24.758575 -17.553559 0.000001 -0.000000 -0.000000 -1.334378 2.301723 15.148046 0.748654 -2.534273 32.910163 -0.000000 -0.000000 0.000003 2.294169 -6.272611 55.118086 6.196635 -4.395905 109.322225 0.000001 0.000001 -0.000004 -3.154392 -2.751318 57.186049 5.379312 -4.600953 98.929983 0.000000 0.000001 0.000000 -4.151416 -2.861655 62.125488 4.250650 -4.639440 84.986548 -0.000001 -0.000001 0.000000 -0.000002 0.000006 -0.000001 0.000002 0.000002 -0.000001 0.000002 0.000002 -0.000001 0.000002 0.000002 -0.000001 0.000002 0.000002 -0.000001 0.000002 0.000002 -0.000001 0.000002 0.000002 -0.000001 0.000002 0.000002 -0.000001 0.000002 0.000002 -0.000001 0.000002 0.000002 -0.000001 0.000003 -0.000001 0.000001 0.000003 -0.000001 0.000001 -0.000000 -0.000001 0.000001 
16.424847 37.996132 -142.548584 -41.631769 -32.449863 -20.375223 -0.000001 -0.000004 -0.000001 -71.733966 -3.742911 23.734718 121.212499 -9.682036 -0.553104 -13.514766 -5.564078 -0.233649 -0.000000 -0.000001 0.000000 -0.000000 -0.000001 0.000000 0.000000 0.000004 -0.000000 -44.796427 15.777425 -15.490319 145.352327 -7.868573 -2.401767 -19.451394 -9.181275 34.142791 -0.000000 -0.000001 0.000001 -0.000000 -0.000001 0.000001 -0.000000 -0.000000 -0.000000 58.653785 3.189593 2.271565 10.505124 0.781260 -4.510375 17.001493 -0.038752 -4.557095 -9.659927 7.109400 1.654466 -13.937034 19.577549 10.459299 0.000002 -0.000001 0.000001 0.000002 -0.000001 0.000001 0.000002 -0.000001 0.000001 -37.154747 -7.099535 1.948440 -70.294524 -17.324741 -67.280929 0.000009 -52.674726 0.000001 -122.929895 2.103037 23.187657 4.709220 9.560372 3.111991 19.473180 -1.474917 7.636920 -0.000001 -0.000004 0.000001 -1.775802 -2.774383 -17.382845 3.159900 5.197347 -62.575625 0.000001 0.000000 -0.000004 -0.316528 3.893455 -38.067247 3.306347 5.270463 -64.180965 0.000004 -0.000002 0.000002 -0.171094 5.416968 -57.419338 4.004541 5.553023 -71.573901 0.000003 -0.000001 0.000003 -6.290036 3.278194 -65.831201 3.449685 5.337172 -65.731828 0.000002 0.000002 0.000000 -0.000000 0.000002 0.000001 -42.131544 -9.493014 -8.099508 -51.747292 44.347998 94.690847 0.000423 102.206234 -0.000426 -37.330273 -24.960762 -23.835016 8.964114 -9.308866 9.896522 15.236207 -24.758577 -17.553555 0.000001 -0.000000 0.000002 -1.334377 2.301721 15.148048 0.748654 -2.534273 32.910163 -0.000001 -0.000001 0.000003 2.294168 -6.272610 55.118097 6.196635 -4.395905 109.322225 0.000001 0.000000 -0.000000 -3.154392 -2.751317 57.186046 5.379315 -4.600952 98.929983 -0.000001 -0.000000 0.000000 -4.151414 -2.861654 62.125488 4.250650 -4.639443 84.986548 -0.000000 0.000000 0.000000 0.000002 0.000001 -0.000001 0.000002 0.000002 -0.000002 0.000002 0.000002 -0.000002 0.000002 0.000002 -0.000002 0.000002 0.000002 -0.000002 0.000002 0.000002 -0.000002 -0.000000 0.000001 -0.000000 0.000002 0.000002 -0.000002 0.000002 0.000002 -0.000002 -0.000000 0.000001 -0.000000 -0.000001 0.000001 -0.000001 -0.000001 0.000001 -0.000001 -0.000001 -0.000004 -0.000001 
16.781126 37.935349 -142.409317 -41.958334 -31.914431 -19.885763 0.000001 0.000001 0.000002 -71.714650 -2.319775 23.214157 121.211597 -9.343597 -0.556151 -13.283815 -5.675263 0.664885 -0.000000 -0.000001 0.000000 -0.000000 -0.000001 0.000000 -0.000000 -0.000000 0.000000 -44.094465 17.377997 -16.878017 145.322766 -6.517038 -2.262403 -18.941972 -9.105769 34.225999 -0.000000 0.000000 0.000000 -0.000000 0.000000 0.000000 0.000001 0.000000 0.000000 58.637393 4.059140 2.882056 10.118707 0.866105 -4.516635 16.299283 0.053084 -4.577927 -9.017579 7.014208 0.717139 -12.349470 18.733459 9.927113 -0.000001 0.000001 -0.000001 -0.000001 0.000001 -0.000001 -0.000001 0.000001 -0.000001 -36.680295 -9.489261 2.687238 -70.158576 -16.387459 -66.724541 0.000032 -50.273761 0.000023 -124.014092 2.372576 21.319911 4.709221 9.560375 3.111991 19.473182 -1.474917 7.636922 0.000000 0.000001 -0.000001 -1.775803 -2.774380 -17.382847 3.159901 5.197351 -62.575625 -0.000001 0.000002 -0.000002 -0.316528 3.893461 -38.067247 3.306348 5.270460 -64.180965 0.000002 0.000000 -0.000001 -0.171094 5.416966 -57.419338 4.004532 5.553025 -71.573901 0.000000 0.000001 -0.000000 -6.290035 3.278193 -65.831201 3.449692 5.337174 -65.731821 0.000002 0.000000 -0.000004 -0.000001 -0.000002 0.000001 -42.198107 -9.013190 -8.776756 -50.678054 43.365254 93.254191 0.000082 101.571668 -0.000069 -37.329538 -25.869478 -23.632883 8.964115 -9.308866 9.896519 15.236205 -24.758575 -17.553557 0.000001 0.000001 -0.000001 -1.334378 2.301722 15.148046 0.748655 -2.534271 32.910160 -0.000001 0.000001 0.000002 2.294168 -6.272610 55.118090 6.196635 -4.395906 109.322232 0.000001 0.000001 0.000002 -3.154391 -2.751318 57.186046 5.379316 -4.600954 98.929976 0.000000 0.000000 0.000004 -4.151415 -2.861655 62.125488 4.250650 -4.639442 84.986555 -0.000001 -0.000001 0.000002 0.000001 -0.000001 -0.000001 0.000002 0.000001 0.000001 0.000002 0.000001 0.000001 0.000002 0.000001 0.000001 0.000002 0.000001 0.000001 0.000002 0.000001 0.000001 0.000004 0.000000 0.000001 0.000002 0.000001 0.000001 0.000002 0.000001 0.000001 0.000004 0.000000 0.000001 -0.000001 -0.000000 -0.000001 -0.000001 -0.000000 -0.000001 0.000001 0.000001 0.000002 
17.206656 37.888283 -142.301743 -41.963231 -31.645199 -18.884128 -0.000001 -0.000000 0.000000 -71.956357 -0.449634 22.473870 121.017278 -8.732272 -0.562367 -12.977971 -5.771702 1.441654 -0.000000 -0.000000 0.000000 -0.000000 -0.000000 0.000000 0.000000 -0.000000 0.000000 -44.026949 19.615040 -18.365948 145.309433 -5.103228 -2.123189 -18.001131 -8.895315 34.320949 -0.000001 0.000000 -0.000001 -0.000001 0.000000 -0.000001 -0.000003 -0.000000 0.000000 59.161972 4.556876 2.785792 9.602644 0.955988 -4.584518 15.446823 0.140945 -4.662279 -8.882092 6.757390 -0.030406 -11.715045 17.956969 9.360131 0.000001 0.000000 -0.000001 0.000001 0.000000 -0.000001 0.000001 0.000000 -0.000001 -36.119092 -11.910060 3.478862 -69.992200 -15.294689 -65.959069 -0.000035 -48.957775 -0.000020 -124.966330 2.565346 19.978522 4.709221 9.560373 3.111991 19.473182 -1.474915 7.636920 -0.000002 0.000003 0.000000 -1.775804 -2.774378 -17.382843 3.159899 5.197357 -62.575625 0.000002 0.000000 -0.000002 -0.316530 3.893455 -38.067247 3.306351 5.270459 -64.180965 0.000001 0.000000 -0.000001 -0.171094 5.416968 -57.419331 4.004541 5.553019 -71.573901 -0.000001 0.000002 0.000002 -6.290037 3.278198 -65.831201 3.449686 5.337172 -65.731821 -0.000003 0.000000 -0.000000 -0.000001 -0.000004 -0.000002 -42.211556 -8.216904 -9.013727 -49.124954 42.788478 90.938942 0.000524 101.711584 -0.000543 -37.584687 -26.727765 -24.228633 8.964115 -9.308866 9.896519 15.236205 -24.758573 -17.553555 0.000001 -0.000001 -0.000002 -1.334379 2.301721 15.148046 0.748656 -2.534272 32.910163 -0.000000 -0.000001 0.000002 2.294169 -6.272611 55.118090 6.196636 -4.395905 109.322225 -0.000000 0.000001 -0.000004 -3.154392 -2.751318 57.186046 5.379312 -4.600952 98.929976 -0.000000 0.000000 0.000000 -4.151415 -2.861654 62.125488 4.250647 -4.639440 84.986555 -0.000000 0.000000 0.000000 0.000000 0.000000 -0.000001 -0.000000 0.000000 0.000001 -0.000000 0.000000 0.000001 -0.000000 0.000000 0.000001 -0.000000 0.000000 0.000001 -0.000000 0.000000 0.000001 0.000001 -0.000000 0.000001 -0.000000 0.000000 0.000001 -0.000000 0.000000 0.000001 0.000001 -0.000000 0.000001 0.000002 0.000001 0.000001 0.000002 0.000001 0.000001 -0.000001 -0.000000 0.000000 
